<svg width="200" height="200" viewBox="0 0 200 200" xmlns="http://www.w3.org/2000/svg">
  <!-- Background circle -->
  <circle cx="100" cy="100" r="95" fill="#121212" stroke="#00ff00" stroke-width="2"/>
  
  <!-- Hexagonal shield -->
  <path d="M100,30 L150,60 L150,140 L100,170 L50,140 L50,60 Z" fill="none" stroke="#00ff00" stroke-width="3"/>
  
  <!-- Inner shield glow -->
  <path d="M100,40 L140,65 L140,135 L100,160 L60,135 L60,65 Z" fill="#121212" stroke="#00ff00" stroke-width="1" stroke-opacity="0.7"/>
  
  <!-- Letter "S" for SitenizinAdi -->
  <path d="M80,75 C80,65 90,60 100,60 C110,60 120,65 120,75 C120,85 110,90 100,90 C90,90 80,95 80,105 C80,115 90,120 100,120 C110,120 120,115 120,105" fill="none" stroke="#00ff00" stroke-width="8" stroke-linecap="round" stroke-linejoin="round"/>
  
  <!-- Target crosshair -->
  <circle cx="100" cy="90" r="35" fill="none" stroke="#00ff00" stroke-width="1" stroke-dasharray="3,3"/>
  <line x1="100" y1="55" x2="100" y2="125" stroke="#00ff00" stroke-width="1" stroke-dasharray="3,3"/>
  <line x1="65" y1="90" x2="135" y2="90" stroke="#00ff00" stroke-width="1" stroke-dasharray="3,3"/>
  
  <!-- Bottom text -->
  <text x="100" y="145" font-family="Montserrat, sans-serif" font-size="10" font-weight="bold" fill="#00ff00" text-anchor="middle">SitenizinAdi</text>
</svg>
